# xmcd
#
# Track frame offsets: 
#        150
#        29038
#        44698
#        61251
#        76806
#        110898
#        127980
#        155342
#        176544
#        188568
#        202189
#        217302
#        242947
#        259551
#
# Disc length: 3844 seconds
#
# Revision: 0
# Processed by: cddbd v1.5.2PL0 Copyright (c) Steve Scherf et al.
# Submitted via: ExactAudioCopy v0.99pb5
#
DISCID=d00f020e
DTITLE=Harold Melvin and the Blue Notes - playlist: the very best of
DYEAR=2008
DGENRE=Soul
TTITLE0=bad luck
TTITLE1=satisfaction guaranteed
TTITLE2=hope that we can be together soon
TTITLE3=if you don't know me by know
TTITLE4=wake up everybody
TTITLE5=yesterday i had the blues (part 1)
TTITLE6=don't leave me this way
TTITLE7=to be true
TTITLE8=let me into your world
TTITLE9=i miss you (part 1)
TTITLE10=where are all my friends
TTITLE11=pretty flower
TTITLE12=ebony woman
TTITLE13=the love i lost
EXTD=
EXTT0=
EXTT1=
EXTT2=
EXTT3=
EXTT4=
EXTT5=
EXTT6=
EXTT7=
EXTT8=
EXTT9=
EXTT10=
EXTT11=
EXTT12=
EXTT13=
PLAYORDER=
